The Wildest Dream: Conquest of Everest 720p x264 aac mp4 bbc subtitles [aularon]

- - -
Synopsis
- - -
George Mallory was obsessed with becoming the first person to conquer the untouched Mount Everest.

He was last seen 800 feet below the summit in 1924 as the clouds rolled in and he disappeared into legend. His death stunned the world.


- - -
URL
- - -
  
http://www.bbc.co.uk/programmes/b013pr15


- - -
Technical Details
- - -
General
Complete name                    : BBC.The.Wildest.Dream.Conquest.of.Everest/The_Wildest_Dream_-_The_Wildest_Dream_Conquest_of_Everest_b013pr15_default.mp4
Format                           : MPEG-4
Format profile                   : Base Media
Codec ID                         : isom
File size                        : 1.53 GiB
Duration                         : 1h 28mn
Overall bit rate                 : 2 474 Kbps
Movie name                       : The Wildest Dream: Conquest of Everest
Album                            : The Wildest Dream
Performer                        : The Wildest Dream
Genre                            : Factual
Recorded date                    : 2011-08-17T21:00:00+01:00
Writing application              : Lavf53.6.0
Cover                            : Yes
Comment                          : Recorded using get_iplayer, by Aularon.
rtng                             : 2
stik                             : 1
desc                             : George Mallory was obsessed with becoming the first person to conquer Mount Everest, but was last seen 800 feet below the summit in 1924, before disappearing into legend.
tvnn                             : BBC HD
tvsh                             : The Wildest Dream
tven                             : b013pr15
catg                             : Factual

Video
ID                               : 1
Format                           : AVC
Format/Info                      : Advanced Video Codec
Format profile                   : High@L4.1
Format settings, CABAC           : Yes
Format settings, ReFrames        : 6 frames
Codec ID                         : avc1
Codec ID/Info                    : Advanced Video Coding
Duration                         : 1h 28mn
Bit rate mode                    : Variable
Bit rate                         : 2 373 Kbps
Maximum bit rate                 : 3 500 Kbps
Width                            : 1 280 pixels
Height                           : 720 pixels
Display aspect ratio             : 16:9
Frame rate mode                  : Constant
Frame rate                       : 25.000 fps
Standard                         : PAL
Color space                      : YUV
Chroma subsampling               : 4:2:0
Bit depth                        : 8 bits
Scan type                        : Progressive
Bits/(Pixel*Frame)               : 0.103
Stream size                      : 1.46 GiB (96%)

Audio
ID                               : 2
Format                           : AAC
Format/Info                      : Advanced Audio Codec
Format profile                   : HE-AAC / LC
Codec ID                         : 40
Duration                         : 1h 28mn
Bit rate mode                    : Constant
Bit rate                         : 96.0 Kbps
Channel(s)                       : 2 channels
Channel positions                : Front: L R
Sampling rate                    : 48.0 KHz / 24.0 KHz
Compression mode                 : Lossy
Stream size                      : 59.8 MiB (4%)
